<svg width="24" height="24" viewBox="0 0 24 24" fill="none" xmlns="http://www.w3.org/2000/svg">
<g id="Iconly/Light/Camera">
<g id="Camera">
<path id="Stroke 1" fill-rule="evenodd" clip-rule="evenodd" d="M15.0402 4.05132C16.0502 4.45332 16.3592 5.85332 16.7722 6.30332C17.1852 6.75332 17.7762 6.90632 18.1032 6.90632C19.8412 6.90632 21.2502 8.31532 21.2502 10.0523V15.8473C21.2502 18.1773 19.3602 20.0673 17.0302 20.0673H6.97018C4.63918 20.0673 2.75018 18.1773 2.75018 15.8473V10.0523C2.75018 8.31532 4.15918 6.90632 5.89718 6.90632C6.22318 6.90632 6.81418 6.75332 7.22818 6.30332C7.64118 5.85332 7.94918 4.45332 8.95918 4.05132C9.97018 3.64932 14.0302 3.64932 15.0402 4.05132Z" stroke="#094542" stroke-width="1.5" stroke-linecap="round" stroke-linejoin="round"/>
<path id="Stroke 13" d="M17.4955 9.5H17.5045" stroke="#094542" stroke-width="2" stroke-linecap="round" stroke-linejoin="round"/>
<path id="Stroke 5" fill-rule="evenodd" clip-rule="evenodd" d="M15.1789 13.128C15.1789 11.372 13.7559 9.94904 11.9999 9.94904C10.2439 9.94904 8.82086 11.372 8.82086 13.128C8.82086 14.884 10.2439 16.307 11.9999 16.307C13.7559 16.307 15.1789 14.884 15.1789 13.128Z" stroke="#094542" stroke-width="1.5" stroke-linecap="round" stroke-linejoin="round"/>
</g>
</g>
</svg>
