<svg width="24" height="24" viewBox="0 0 24 24" fill="none" xmlns="http://www.w3.org/2000/svg">
<path fill-rule="evenodd" clip-rule="evenodd" d="M11.2115 11.2119L10.1645 14.5589L13.5105 13.5109L14.5585 10.1639L11.2115 11.2119ZM9.02045 16.4519C8.82445 16.4519 8.63245 16.3749 8.48945 16.2329C8.29245 16.0349 8.22045 15.7439 8.30445 15.4789L9.89745 10.3899C9.97045 10.1539 10.1545 9.97089 10.3885 9.89789L15.4775 8.30489C15.7445 8.21989 16.0345 8.29289 16.2325 8.48989C16.4295 8.68789 16.5015 8.97889 16.4175 9.24389L14.8255 14.3329C14.7525 14.5679 14.5675 14.7519 14.3335 14.8249L9.24445 16.4179C9.17045 16.4409 9.09445 16.4519 9.02045 16.4519V16.4519Z" fill="black"/>
<mask id="mask0" mask-type="alpha" maskUnits="userSpaceOnUse" x="2" y="2" width="21" height="21">
<path fill-rule="evenodd" clip-rule="evenodd" d="M2 2H22.7218V22.7217H2V2Z" fill="white"/>
</mask>
<g mask="url(#mask0)">
<path fill-rule="evenodd" clip-rule="evenodd" d="M12.3608 3.5C7.47476 3.5 3.49976 7.476 3.49976 12.361C3.49976 17.247 7.47476 21.222 12.3608 21.222C17.2468 21.222 21.2218 17.247 21.2218 12.361C21.2218 7.476 17.2468 3.5 12.3608 3.5M12.3608 22.722C6.64776 22.722 1.99976 18.074 1.99976 12.361C1.99976 6.648 6.64776 2 12.3608 2C18.0738 2 22.7218 6.648 22.7218 12.361C22.7218 18.074 18.0738 22.722 12.3608 22.722" fill="black"/>
</g>
</svg>
