<svg width="24" height="24" viewBox="0 0 24 24" fill="none" xmlns="http://www.w3.org/2000/svg">
<path d="M19.5492 10.9969C19.0942 9.97281 18.4328 9.05364 17.6063 8.2969L16.9242 7.67111C16.9011 7.65045 16.8732 7.63578 16.843 7.62841C16.8129 7.62103 16.7814 7.62116 16.7513 7.6288C16.7212 7.63644 16.6935 7.65134 16.6705 7.6722C16.6475 7.69307 16.63 7.71925 16.6195 7.74846L16.3148 8.62268C16.125 9.17111 15.7758 9.73127 15.2812 10.2821C15.2484 10.3172 15.2109 10.3266 15.1852 10.3289C15.1594 10.3313 15.1195 10.3266 15.0844 10.2938C15.0516 10.2656 15.0352 10.2235 15.0375 10.1813C15.1242 8.77033 14.7023 7.17893 13.7789 5.4469C13.0148 4.00783 11.9531 2.88518 10.6266 2.10236L9.65859 1.53283C9.53203 1.45783 9.37031 1.55627 9.37734 1.70393L9.42891 2.82893C9.46406 3.59768 9.375 4.27736 9.16406 4.84221C8.90625 5.53361 8.53594 6.1758 8.0625 6.75236C7.73302 7.15306 7.35959 7.51549 6.94922 7.83283C5.96087 8.5926 5.15722 9.56612 4.59844 10.6805C4.04103 11.8046 3.75068 13.0422 3.75 14.2969C3.75 15.4031 3.96797 16.4742 4.39922 17.4844C4.81562 18.457 5.41654 19.3396 6.16875 20.0836C6.92813 20.8336 7.80938 21.4242 8.79141 21.8344C9.80859 22.261 10.8867 22.4766 12 22.4766C13.1133 22.4766 14.1914 22.261 15.2086 21.8367C16.1882 21.429 17.079 20.8343 17.8312 20.086C18.5906 19.336 19.1859 18.4594 19.6008 17.4867C20.0314 16.4793 20.2523 15.3948 20.25 14.2992C20.25 13.1555 20.0156 12.0446 19.5492 10.9969V10.9969Z" fill="black"/>
</svg>
