<svg width="24" height="24" viewBox="0 0 24 24" fill="none" xmlns="http://www.w3.org/2000/svg">
<mask id="mask0" mask-type="alpha" maskUnits="userSpaceOnUse" x="2" y="1" width="21" height="22">
<path fill-rule="evenodd" clip-rule="evenodd" d="M2 1.00021H22.4998V22.5052H2V1.00021Z" fill="white"/>
</mask>
<g mask="url(#mask0)">
<path fill-rule="evenodd" clip-rule="evenodd" d="M13.7168 15.2913C14.9208 15.2913 15.9008 16.2643 15.9008 17.4603V20.5363C15.9008 20.7933 16.1068 20.9993 16.3708 21.0053H18.2768C19.7788 21.0053 20.9998 19.7993 20.9998 18.3173V9.59331C20.9928 9.08331 20.7498 8.60331 20.3328 8.28431L13.7398 3.02631C12.8548 2.32531 11.6168 2.32531 10.7288 3.02831L4.18076 8.28231C3.74776 8.61131 3.50476 9.09131 3.49976 9.61031V18.3173C3.49976 19.7993 4.72076 21.0053 6.22276 21.0053H8.14676C8.41776 21.0053 8.63776 20.7903 8.63776 20.5263C8.63776 20.4683 8.64476 20.4103 8.65676 20.3553V17.4603C8.65676 16.2713 9.63076 15.2993 10.8258 15.2913H13.7168ZM18.2768 22.5053H16.3528C15.2508 22.4793 14.4008 21.6143 14.4008 20.5363V17.4603C14.4008 17.0913 14.0938 16.7913 13.7168 16.7913H10.8308C10.4618 16.7933 10.1568 17.0943 10.1568 17.4603V20.5263C10.1568 20.6013 10.1468 20.6733 10.1258 20.7413C10.0178 21.7313 9.17176 22.5053 8.14676 22.5053H6.22276C3.89376 22.5053 1.99976 20.6263 1.99976 18.3173V9.60331C2.00976 8.60931 2.46776 7.69931 3.25876 7.10031L9.79376 1.85531C11.2328 0.715311 13.2378 0.715311 14.6738 1.85331L21.2558 7.10331C22.0288 7.69231 22.4868 8.60031 22.4998 9.58231V18.3173C22.4998 20.6263 20.6058 22.5053 18.2768 22.5053V22.5053Z" fill="black"/>
</g>
</svg>
